<mxfile host="app.diagrams.net" modified="2023-02-03T04:53:37.317Z" agent="5.0 (X11; Linux x86_64) AppleWebKit/537.36 (KHTML, like Gecko) Chrome/108.0.0.0 Safari/537.36" etag="pRLvPUTetzOLFole773M" version="20.8.16" type="github">
  <diagram id="C5RBs43oDa-KdzZeNtuy" name="Page-1">
    <mxGraphModel dx="1040" dy="627" grid="1" gridSize="10" guides="1" tooltips="1" connect="1" arrows="1" fold="1" page="1" pageScale="1" pageWidth="827" pageHeight="1169" math="0" shadow="0">
      <root>
        <mxCell id="WIyWlLk6GJQsqaUBKTNV-0" />
        <mxCell id="WIyWlLk6GJQsqaUBKTNV-1" parent="WIyWlLk6GJQsqaUBKTNV-0" />
        <mxCell id="w1BXf7ldXTNkFkw4cQBL-10" value="" style="edgeStyle=orthogonalEdgeStyle;rounded=0;orthogonalLoop=1;jettySize=auto;html=1;" edge="1" parent="WIyWlLk6GJQsqaUBKTNV-1" source="w1BXf7ldXTNkFkw4cQBL-2" target="w1BXf7ldXTNkFkw4cQBL-3">
          <mxGeometry relative="1" as="geometry" />
        </mxCell>
        <mxCell id="w1BXf7ldXTNkFkw4cQBL-2" value="start" style="ellipse;whiteSpace=wrap;html=1;" vertex="1" parent="WIyWlLk6GJQsqaUBKTNV-1">
          <mxGeometry x="310" y="70" width="110" height="50" as="geometry" />
        </mxCell>
        <mxCell id="w1BXf7ldXTNkFkw4cQBL-7" style="edgeStyle=orthogonalEdgeStyle;rounded=0;orthogonalLoop=1;jettySize=auto;html=1;entryX=0.592;entryY=0.017;entryDx=0;entryDy=0;entryPerimeter=0;" edge="1" parent="WIyWlLk6GJQsqaUBKTNV-1" source="w1BXf7ldXTNkFkw4cQBL-3" target="w1BXf7ldXTNkFkw4cQBL-4">
          <mxGeometry relative="1" as="geometry" />
        </mxCell>
        <mxCell id="w1BXf7ldXTNkFkw4cQBL-3" value="Input num1,num2" style="shape=parallelogram;perimeter=parallelogramPerimeter;whiteSpace=wrap;html=1;fixedSize=1;" vertex="1" parent="WIyWlLk6GJQsqaUBKTNV-1">
          <mxGeometry x="300" y="160" width="130" height="60" as="geometry" />
        </mxCell>
        <mxCell id="w1BXf7ldXTNkFkw4cQBL-9" value="" style="edgeStyle=orthogonalEdgeStyle;rounded=0;orthogonalLoop=1;jettySize=auto;html=1;" edge="1" parent="WIyWlLk6GJQsqaUBKTNV-1" source="w1BXf7ldXTNkFkw4cQBL-4" target="w1BXf7ldXTNkFkw4cQBL-8">
          <mxGeometry relative="1" as="geometry" />
        </mxCell>
        <mxCell id="w1BXf7ldXTNkFkw4cQBL-4" value="sum=num1+num2" style="rounded=0;whiteSpace=wrap;html=1;" vertex="1" parent="WIyWlLk6GJQsqaUBKTNV-1">
          <mxGeometry x="294" y="270" width="120" height="60" as="geometry" />
        </mxCell>
        <mxCell id="w1BXf7ldXTNkFkw4cQBL-12" value="" style="edgeStyle=orthogonalEdgeStyle;rounded=0;orthogonalLoop=1;jettySize=auto;html=1;" edge="1" parent="WIyWlLk6GJQsqaUBKTNV-1" source="w1BXf7ldXTNkFkw4cQBL-8" target="w1BXf7ldXTNkFkw4cQBL-11">
          <mxGeometry relative="1" as="geometry" />
        </mxCell>
        <mxCell id="w1BXf7ldXTNkFkw4cQBL-8" value="print sum" style="shape=parallelogram;perimeter=parallelogramPerimeter;whiteSpace=wrap;html=1;fixedSize=1;" vertex="1" parent="WIyWlLk6GJQsqaUBKTNV-1">
          <mxGeometry x="295" y="380" width="120" height="60" as="geometry" />
        </mxCell>
        <mxCell id="w1BXf7ldXTNkFkw4cQBL-11" value="End" style="ellipse;whiteSpace=wrap;html=1;" vertex="1" parent="WIyWlLk6GJQsqaUBKTNV-1">
          <mxGeometry x="290" y="480" width="130" height="50" as="geometry" />
        </mxCell>
      </root>
    </mxGraphModel>
  </diagram>
</mxfile>
